<svg xmlns="http://www.w3.org/2000/svg"
shape-rendering="geometricPrecision"
width="4000" height="4000" viewBox="0 0 1024 1024"><rect width="100%" height="100%" fill="#FDFDFC" />
  <metadata>null</metadata>

<path d="
M 352.087 495.146
C 352.658 473.964 352.294 452.696 352.276 431.503
C 352.247 397.834 352.315 364.165 352.34 330.496
C 352.351 315.663 352.378 300.831 352.343 285.997
C 352.334 282.164 352.324 278.332 352.314 274.499
C 352.31 273.079 351.837 270.744 352.601 269.526
C 357.135 268.942 361.935 269.355 366.503 269.352
C 375.171 269.345 383.838 269.338 392.506 269.369
C 417.338 269.46 442.173 269.42 467.006 269.414
C 476.409 269.412 485.813 269.397 495.216 269.403
C 497.798 269.405 500.535 269.255 503.099 269.511
C 503.834 269.584 504.827 269.444 505.404 269.921
C 499.44 289.219 491.44 307.495 482.377 325.522
C 461.421 367.206 434.305 405.132 404.089 440.548
C 392.948 453.606 381.3 466.125 369.367 478.46
C 365.613 482.34 361.757 486.115 357.985 489.977
C 356.122 491.885 354.237 494.659 351.991 496.089
C 352.051 495.569 352.017 495.883 352.087 495.146 Z"
opacity="1" fill="rgb(2,23,76)" fill-rule="evenodd" />
<path d="
M 352.397 520.031
C 354.092 517.384 356.355 515.141 358.307 512.694
C 362.248 507.755 366.269 502.884 370.362 498.068
C 379.763 487.008 388.861 475.691 398.255 464.626
C 401.655 460.623 405.587 456.878 408.487 452.487
C 409.004 452.195 410.086 453.908 410.514 454.398
C 412.679 456.879 414.73 459.476 416.759 462.069
C 424.963 472.556 433.609 482.769 442.125 493.006
C 468.607 524.837 494.788 556.978 520.542 589.401
C 527.917 598.685 535.586 607.737 543.04 616.959
C 545.225 619.661 547.418 622.36 549.59 625.072
C 550.303 625.963 551.941 627.243 552.323 628.273
C 547.016 627.661 541.347 628.234 536 628.195
C 524.669 628.112 513.337 628.045 502.005 628.073
C 470.171 628.151 438.337 628.126 406.503 628.118
C 394.169 628.115 381.832 628.011 369.499 628.146
C 365.498 628.19 361.498 628.18 357.497 628.185
C 355.946 628.186 353.729 628.602 352.265 628.15
C 352.685 602.621 352.272 577.037 352.262 551.503
C 352.26 544.17 352.223 536.838 352.221 529.505
C 352.221 526.753 351.367 522.58 352.397 520.031 Z"
opacity="1" fill="rgb(3,24,77)" fill-rule="evenodd" />
<path d="
M 434.41 434.156
C 438.282 430.554 441.138 425.369 444.24 421.104
C 449.103 414.417 454.426 408.085 459.247 401.359
C 473.242 381.832 488.329 363.095 503.008 344.09
C 523.172 317.982 544.02 290.004 575.982 277.781
C 586.61 273.717 597.655 271.018 608.993 269.929
C 618.271 269.038 627.698 269.446 637.006 269.433
C 651.006 269.414 665.006 269.45 679.007 269.457
C 686.064 269.461 693.124 269.397 700.181 269.446
C 703.635 269.471 707.59 270.142 710.973 269.434
C 710.466 270.575 709.252 271.507 708.453 272.459
C 706.279 275.05 704.105 277.705 702.078 280.412
C 693.759 291.525 684.755 302.119 676.599 313.36
C 666.58 327.17 655.664 340.31 645.479 353.994
C 632.39 371.581 619.171 389.345 602.563 403.823
C 590.706 414.159 576.641 422.222 561.845 427.496
C 541.86 434.62 521.296 434.293 500.39 434.502
C 486.928 434.636 473.471 434.402 460.007 434.412
C 451.45 434.418 442.754 434.801 434.236 434.527
C 434.294 434.403 434.352 434.28 434.41 434.156 Z"
opacity="1" fill="rgb(197,29,41)" fill-rule="evenodd" />
<path d="
M 436.035 446.691
C 437.791 446.337 439.647 446.665 441.434 446.569
C 444.794 446.39 448.145 446.284 451.511 446.267
C 461.511 446.217 471.511 446.214 481.511 446.194
C 491.678 446.174 501.844 446.173 512.011 446.188
C 518.702 446.198 525.544 445.945 532.199 446.769
C 553.491 449.404 572.617 457.322 589.667 470.304
C 606.32 482.984 618.769 500.063 630.821 516.929
C 640.526 530.511 650.501 543.9 660.169 557.514
C 668.361 569.048 676.833 580.362 685.23 591.741
C 690.001 598.207 694.411 604.942 699.204 611.397
C 702.343 615.624 705.196 620.056 708.544 624.126
C 709.417 625.186 710.218 626.34 711.131 627.362
C 711.291 627.542 711.979 627.937 711.823 628.155
C 701.573 628.46 691.266 628.17 681.009 628.145
C 663.842 628.103 646.675 628.175 629.509 628.129
C 621.916 628.109 614.322 628.037 606.729 628.033
C 602.872 628.03 598.025 628.67 594.399 627.101
C 591.877 626.009 589.895 623.931 587.815 622.192
C 583.584 618.654 579.584 614.986 575.746 611.019
C 563.209 598.061 551.797 583.931 540.162 570.174
C 515.481 540.991 490.541 512.02 466.109 482.632
C 456.134 470.633 445.76 458.891 436.035 446.691 Z"
opacity="1" fill="rgb(199,33,42)" fill-rule="evenodd" />

</svg>