<svg version="1.1" id="Layer_1" xmlns="http://www.w3.org/2000/svg" xmlns:xlink="http://www.w3.org/1999/xlink" x="0px" y="0px"
	 width="100%" viewBox="0 0 293 291" enable-background="new 0 0 293 291" xml:space="preserve">
<path fill="" opacity="0" stroke="none"
	d="
M192.000000,292.000000
	C128.027191,292.000000 64.554375,292.000000 1.040780,292.000000
	C1.040780,195.068726 1.040780,98.137444 1.040780,1.103075
	C98.556038,1.103075 196.112213,1.103075 293.834198,1.103075
	C293.834198,97.999763 293.834198,194.999863 293.834198,292.000000
	C260.137604,292.000000 226.318802,292.000000 192.000000,292.000000
M122.192657,137.233154
	C110.794868,137.523605 99.397087,137.814056 87.130402,137.941513
	C76.166534,138.349091 65.952332,141.183701 56.269909,147.460327
	C56.187473,147.608185 56.105038,147.756058 55.384045,148.005768
	C55.079235,148.294327 54.774422,148.582886 53.813324,148.929443
	C40.035557,158.863754 30.581011,172.033493 28.939054,188.938446
	C27.389122,204.895935 28.080500,221.079987 28.073088,237.164520
	C28.072353,238.754211 29.715839,240.955551 31.207876,241.833847
	C39.603905,246.776138 48.187233,251.400238 57.123631,256.719299
	C64.756439,259.409973 72.389244,262.100677 80.495468,264.943420
	C80.495468,264.943420 80.978561,264.825653 81.642601,264.994385
	C82.094833,264.958649 82.547058,264.922913 83.806297,265.117157
	C95.438698,267.071014 106.434593,264.934387 117.696175,259.918365
	C130.778702,253.404526 141.405762,244.317551 148.577209,230.623520
	C150.325760,227.519455 152.074310,224.415390 153.501083,221.882553
	C159.010559,229.677933 164.442734,237.363922 170.132401,245.676758
	C180.137024,255.706802 191.901962,262.431671 206.853363,264.966064
	C208.005402,265.052551 209.163895,265.088165 210.308517,265.233246
	C224.174576,266.990692 236.995499,263.843262 249.731781,256.909149
	C258.139587,252.218658 266.515289,247.469101 274.970917,242.866486
	C278.394318,241.003036 280.091827,238.374649 279.996216,234.455414
	C279.675720,221.318497 280.004761,208.135818 279.012848,195.051941
	C277.347229,173.081757 266.936493,156.343140 246.849213,145.314941
	C242.023224,141.258286 237.191711,137.208160 232.372818,133.143097
	C227.642639,129.152893 224.187653,129.398132 220.879852,134.656738
	C215.313461,143.505981 209.933243,152.485001 204.867264,161.626984
	C203.674622,163.779175 202.867188,167.758987 204.011444,169.163025
	C205.297348,170.740829 208.982986,170.643997 211.645889,170.752106
	C215.574982,170.911560 219.626862,169.987274 223.441910,170.626328
	C232.484528,172.140991 238.811676,177.929016 244.024399,185.934006
	C249.679657,197.159424 248.788055,208.139374 242.209717,219.245392
	C233.448212,231.704010 221.355682,234.981979 206.507294,231.504745
	C196.819534,227.843048 190.064880,221.587875 187.668671,211.081039
	C186.988495,208.098557 185.369537,205.290390 183.940170,202.526917
	C181.063721,196.965759 178.021667,191.490265 175.262878,185.394470
	C175.370361,184.995361 175.477859,184.596237 175.980667,183.689850
	C179.438263,177.704803 182.895844,171.719757 186.875534,165.232483
	C194.134995,152.585709 202.174881,140.316071 208.503723,127.219589
	C225.678070,91.680084 208.439713,51.802395 170.549667,38.484539
	C165.880386,35.965366 161.292160,33.274162 156.499725,31.016401
	C154.721420,30.178619 152.029205,29.470507 150.498215,30.221298
	C142.502823,34.142181 134.746872,38.551342 126.172737,42.877663
	C113.269356,48.445866 104.399170,58.103355 97.868477,70.314255
	C89.310387,86.315941 91.299835,103.602951 91.638397,120.645912
	C91.667946,122.133415 94.792480,124.691528 96.582664,124.785492
	C100.818642,125.007835 105.196136,124.408340 109.374931,123.494263
	C121.901573,120.754166 123.210075,119.087845 122.652946,106.348595
	C122.283478,97.900322 122.900368,89.740158 127.659935,81.822845
	C138.106384,68.067673 151.029648,65.036346 168.970673,72.800331
	C179.176956,79.794441 184.105881,89.424164 183.139053,102.492340
	C181.789246,106.691925 180.851517,111.085289 178.989883,115.044182
	C176.408173,120.534386 173.132416,125.698227 169.661880,131.499603
	C161.380890,145.858292 153.099899,160.216980 144.229080,174.985275
	C141.420456,179.775406 138.754669,184.656464 135.775223,189.337891
	C128.194077,201.249695 120.472649,213.072220 112.180519,225.163803
	C104.403168,232.217117 95.017288,233.718613 84.375511,232.632874
	C64.425041,229.197937 56.308723,208.658951 59.997200,194.074371
	C63.453072,180.409561 72.633827,172.895935 86.511711,169.992920
	C86.678764,169.942230 86.845818,169.891525 87.504173,169.946915
	C87.660316,169.886139 87.816452,169.825378 88.910027,169.842560
	C91.718849,169.827576 94.529099,169.864700 97.336227,169.787781
	C105.558037,169.562500 113.778610,169.291809 122.761276,169.127014
	C125.036377,167.689041 128.048203,166.760239 129.456207,164.722977
	C134.908539,156.833923 139.952194,148.653046 144.885712,140.423599
	C145.753952,138.975327 146.046967,136.420532 145.330750,135.036499
	C144.802948,134.016602 142.105850,133.496765 140.535812,133.749756
	C134.665466,134.695755 128.861160,136.051544 122.192657,137.233154
z"/>
<path fill="#930155" opacity="1.000000" stroke="none"
	d="
M170.997284,39.011524
	C208.439713,51.802395 225.678070,91.680084 208.503723,127.219589
	C202.174881,140.316071 194.134995,152.585709 186.456558,165.110687
	C185.156342,163.085785 183.532394,161.187927 183.518845,159.278656
	C183.450058,149.576874 183.629715,139.864716 184.054626,130.170761
	C184.391785,122.479034 185.371735,114.815018 185.686890,107.123146
	C185.757782,105.392944 184.250732,103.598091 183.470093,101.833000
	C184.105881,89.424164 179.176956,79.794441 169.126617,72.358765
	C170.419922,71.373520 171.557266,70.829849 172.996155,70.142036
	C169.215073,65.356636 169.769897,60.337303 170.702484,54.992180
	C171.615707,49.758106 174.280365,44.381817 170.997284,39.011524
z"/>
<path fill="#8A015B" opacity="1.000000" stroke="none"
	d="
M247.107285,145.950897
	C266.936493,156.343140 277.347229,173.081757 279.012848,195.051941
	C280.004761,208.135818 279.675720,221.318497 279.996216,234.455414
	C280.091827,238.374649 278.394318,241.003036 274.970917,242.866486
	C266.515289,247.469101 258.139587,252.218658 249.015366,256.896729
	C247.535583,255.523102 246.163635,254.185547 246.109650,252.796768
	C245.806732,245.004135 245.878769,237.197891 245.703003,229.398972
	C245.619522,225.694458 246.505386,221.649124 242.787415,218.927795
	C248.788055,208.139374 249.679657,197.159424 243.999832,185.184250
	C247.590179,180.668045 246.855087,176.649445 244.757538,172.485321
	C244.419739,171.814697 244.444443,170.898270 244.492416,170.107040
	C244.748306,165.885971 244.943787,161.655548 245.396057,157.453735
	C245.810593,153.602676 246.524994,149.783905 247.107285,145.950897
z"/>
<path fill="#A30146" opacity="1.000000" stroke="none"
	d="
M56.022602,147.903946
	C56.105038,147.756058 56.187473,147.608185 56.687691,147.750824
	C57.954643,149.549805 59.909122,151.838028 59.480736,152.445297
	C55.521595,158.057648 57.878761,164.387817 57.056362,170.305222
	C56.633404,173.348572 56.636284,176.477554 56.721237,179.560257
	C57.011646,190.098358 57.424442,200.633087 57.782688,211.169373
	C57.788013,211.326111 57.665672,211.483322 57.647686,211.645279
	C56.981121,217.648102 55.289070,223.607925 57.638760,229.682129
	C58.166100,231.045380 57.605602,232.920135 57.281029,234.505157
	C56.314434,239.225479 55.010033,244.091049 58.046101,248.387726
	C60.423393,251.752136 60.053047,254.049423 56.706680,256.132874
	C48.187233,251.400238 39.603905,246.776138 31.207876,241.833847
	C29.715839,240.955551 28.072353,238.754211 28.073088,237.164520
	C28.080500,221.079987 27.389122,204.895935 28.939054,188.938446
	C30.581011,172.033493 40.035557,158.863754 54.460423,148.848022
	C55.412548,148.479065 55.717575,148.191498 56.022602,147.903946
z"/>
<path fill="#960052" opacity="1.000000" stroke="none"
	d="
M169.874908,245.049896
	C164.442734,237.363922 159.010559,229.677933 153.501083,221.882553
	C152.074310,224.415390 150.325760,227.519455 147.891357,230.721008
	C146.803680,229.154083 146.148712,227.504654 146.049011,225.822327
	C145.784256,221.355072 145.687088,216.874146 145.654617,212.397705
	C145.597168,204.475922 145.809113,196.548248 145.571075,188.633179
	C145.430252,183.950333 149.393219,179.010727 144.818909,174.575668
	C153.099899,160.216980 161.380890,145.858292 170.313828,131.253326
	C176.664536,131.958694 173.527054,135.994431 173.521149,138.755005
	C173.510803,143.599884 173.045685,148.441910 172.894623,153.288986
	C172.786499,156.759003 172.990784,160.239563 172.856842,163.707748
	C172.669815,168.550995 171.914230,173.408615 172.184509,178.216080
	C172.299820,180.266998 174.391678,182.206818 175.585358,184.197128
	C175.477859,184.596237 175.370361,184.995361 174.852112,185.973022
	C171.604050,205.471848 171.118912,224.391724 174.671402,243.531479
	C172.984009,244.065659 171.429459,244.557770 169.874908,245.049896
z"/>
<path fill="#9C034E" opacity="1.000000" stroke="none"
	d="
M127.078522,82.175461
	C122.900368,89.740158 122.283478,97.900322 122.652946,106.348595
	C123.210075,119.087845 121.901573,120.754166 109.374931,123.494263
	C105.196136,124.408340 100.818642,125.007835 96.582664,124.785492
	C94.792480,124.691528 91.667946,122.133415 91.638397,120.645912
	C91.299835,103.602951 89.310387,86.315941 97.868477,70.314255
	C104.399170,58.103355 113.269356,48.445866 126.693542,43.166092
	C127.447395,45.363865 128.009155,47.307018 127.817276,49.172657
	C127.639832,50.897961 126.156281,52.527126 126.111717,54.221352
	C125.908302,61.953651 125.949730,69.694725 126.049683,77.430748
	C126.070175,79.016487 126.719215,80.594101 127.078522,82.175461
z"/>
<path fill="#A00149" opacity="1.000000" stroke="none"
	d="
M56.915154,256.426086
	C60.053047,254.049423 60.423393,251.752136 58.046101,248.387726
	C55.010033,244.091049 56.314434,239.225479 57.281029,234.505157
	C57.605602,232.920135 58.166100,231.045380 57.638760,229.682129
	C55.289070,223.607925 56.981121,217.648102 57.647686,211.645279
	C57.665672,211.483322 57.788013,211.326111 57.782688,211.169373
	C57.424442,200.633087 57.011646,190.098358 56.721237,179.560257
	C56.636284,176.477554 56.633404,173.348572 57.056362,170.305222
	C57.878761,164.387817 55.521595,158.057648 59.480736,152.445297
	C59.909122,151.838028 57.954643,149.549805 56.932129,147.682007
	C65.952332,141.183701 76.166534,138.349091 87.516129,138.398010
	C84.698334,149.039429 83.642410,159.355988 85.999901,169.881775
	C72.633827,172.895935 63.453072,180.409561 59.997200,194.074371
	C56.308723,208.658951 64.425041,229.197937 84.733017,233.214569
	C85.012024,238.811600 85.141579,243.841232 84.798546,248.838409
	C84.430229,254.203888 83.617882,259.538879 82.999298,264.887177
	C82.547058,264.922913 82.094833,264.958649 81.223381,264.767639
	C80.476036,264.336060 80.215332,264.419556 80.022049,264.791351
	C72.389244,262.100677 64.756439,259.409973 56.915154,256.426086
z"/>
<path fill="#970151" opacity="1.000000" stroke="none"
	d="
M127.369232,81.999153
	C126.719215,80.594101 126.070175,79.016487 126.049683,77.430748
	C125.949730,69.694725 125.908302,61.953651 126.111717,54.221352
	C126.156281,52.527126 127.639832,50.897961 127.817276,49.172657
	C128.009155,47.307018 127.447395,45.363865 127.061005,43.122597
	C134.746872,38.551342 142.502823,34.142181 150.498215,30.221298
	C152.029205,29.470507 154.721420,30.178619 156.499725,31.016401
	C161.292160,33.274162 165.880386,35.965366 170.773468,38.748032
	C174.280365,44.381817 171.615707,49.758106 170.702484,54.992180
	C169.769897,60.337303 169.215073,65.356636 172.996155,70.142036
	C171.557266,70.829849 170.419922,71.373520 168.936829,72.069534
	C151.029648,65.036346 138.106384,68.067673 127.369232,81.999153
z"/>
<path fill="#99014F" opacity="1.000000" stroke="none"
	d="
M144.523987,174.780472
	C149.393219,179.010727 145.430252,183.950333 145.571075,188.633179
	C145.809113,196.548248 145.597168,204.475922 145.654617,212.397705
	C145.687088,216.874146 145.784256,221.355072 146.049011,225.822327
	C146.148712,227.504654 146.803680,229.154083 147.601715,230.910400
	C141.405762,244.317551 130.778702,253.404526 117.345612,259.505371
	C116.661728,249.682022 116.499748,240.260025 115.860100,230.870575
	C115.721138,228.830688 113.869942,226.907440 112.807373,224.930481
	C120.472649,213.072220 128.194077,201.249695 135.775223,189.337891
	C138.754669,184.656464 141.420456,179.775406 144.523987,174.780472
z"/>
<path fill="#940154" opacity="1.000000" stroke="none"
	d="
M170.003662,245.363327
	C171.429459,244.557770 172.984009,244.065659 174.671402,243.531479
	C171.118912,224.391724 171.604050,205.471848 174.744629,186.265503
	C178.021667,191.490265 181.063721,196.965759 183.940170,202.526917
	C185.369537,205.290390 186.988495,208.098557 187.668671,211.081039
	C190.064880,221.587875 196.819534,227.843048 206.753571,232.184753
	C204.939957,243.448654 206.413147,254.143402 205.998428,264.778900
	C191.901962,262.431671 180.137024,255.706802 170.003662,245.363327
z"/>
<path fill="#8F0159" opacity="1.000000" stroke="none"
	d="
M206.425903,264.872498
	C206.413147,254.143402 204.939957,243.448654 206.999603,232.442795
	C221.355682,234.981979 233.448212,231.704010 242.498566,219.086594
	C246.505386,221.649124 245.619522,225.694458 245.703003,229.398972
	C245.878769,237.197891 245.806732,245.004135 246.109650,252.796768
	C246.163635,254.185547 247.535583,255.523102 248.668427,256.950317
	C236.995499,263.843262 224.174576,266.990692 210.308517,265.233246
	C209.163895,265.088165 208.005402,265.052551 206.425903,264.872498
z"/>
<path fill="#8F0259" opacity="1.000000" stroke="none"
	d="
M246.978241,145.632919
	C246.524994,149.783905 245.810593,153.602676 245.396057,157.453735
	C244.943787,161.655548 244.748306,165.885971 244.492416,170.107040
	C244.444443,170.898270 244.419739,171.814697 244.757538,172.485321
	C246.855087,176.649445 247.590179,180.668045 243.947113,184.823456
	C238.811676,177.929016 232.484528,172.140991 223.441910,170.626328
	C219.626862,169.987274 215.574982,170.911560 211.645889,170.752106
	C208.982986,170.643997 205.297348,170.740829 204.011444,169.163025
	C202.867188,167.758987 203.674622,163.779175 204.867264,161.626984
	C209.933243,152.485001 215.313461,143.505981 220.879852,134.656738
	C224.187653,129.398132 227.642639,129.152893 232.372818,133.143097
	C237.191711,137.208160 242.023224,141.258286 246.978241,145.632919
z"/>
<path fill="#9C004B" opacity="1.000000" stroke="none"
	d="
M86.255806,169.937347
	C83.642410,159.355988 84.698334,149.039429 87.950577,138.479507
	C99.397087,137.814056 110.794868,137.523605 122.790581,137.522171
	C125.507965,139.743530 126.359619,141.345215 124.610832,144.540665
	C123.077667,147.342133 123.362984,151.189774 123.046745,154.594040
	C122.600311,159.399948 122.339706,164.223114 121.999664,169.038910
	C113.778610,169.291809 105.558037,169.562500 97.336227,169.787781
	C94.529099,169.864700 91.718849,169.827576 88.342361,169.669281
	C87.424889,169.341309 87.170944,169.456238 87.012871,169.840805
	C86.845818,169.891525 86.678764,169.942230 86.255806,169.937347
z"/>
<path fill="#9E014C" opacity="1.000000" stroke="none"
	d="
M112.493942,225.047150
	C113.869942,226.907440 115.721138,228.830688 115.860100,230.870575
	C116.499748,240.260025 116.661728,249.682022 116.991516,259.523132
	C106.434593,264.934387 95.438698,267.071014 83.402802,265.002167
	C83.617882,259.538879 84.430229,254.203888 84.798546,248.838409
	C85.141579,243.841232 85.012024,238.811600 85.044998,233.417633
	C95.017288,233.718613 104.403168,232.217117 112.493942,225.047150
z"/>
<path fill="#940154" opacity="1.000000" stroke="none"
	d="
M175.783005,183.943481
	C174.391678,182.206818 172.299820,180.266998 172.184509,178.216080
	C171.914230,173.408615 172.669815,168.550995 172.856842,163.707748
	C172.990784,160.239563 172.786499,156.759003 172.894623,153.288986
	C173.045685,148.441910 173.510803,143.599884 173.521149,138.755005
	C173.527054,135.994431 176.664536,131.958694 170.559799,131.004425
	C173.132416,125.698227 176.408173,120.534386 178.989883,115.044182
	C180.851517,111.085289 181.789246,106.691925 183.304565,102.162674
	C184.250732,103.598091 185.757782,105.392944 185.686890,107.123146
	C185.371735,114.815018 184.391785,122.479034 184.054626,130.170761
	C183.629715,139.864716 183.450058,149.576874 183.518845,159.278656
	C183.532394,161.187927 185.156342,163.085785 186.195511,165.361801
	C182.895844,171.719757 179.438263,177.704803 175.783005,183.943481
z"/>
<path fill="#9C0553" opacity="1.000000" stroke="none"
	d="
M122.380470,169.082962
	C122.339706,164.223114 122.600311,159.399948 123.046745,154.594040
	C123.362984,151.189774 123.077667,147.342133 124.610832,144.540665
	C126.359619,141.345215 125.507965,139.743530 123.210297,137.532410
	C128.861160,136.051544 134.665466,134.695755 140.535812,133.749756
	C142.105850,133.496765 144.802948,134.016602 145.330750,135.036499
	C146.046967,136.420532 145.753952,138.975327 144.885712,140.423599
	C139.952194,148.653046 134.908539,156.833923 129.456207,164.722977
	C128.048203,166.760239 125.036377,167.689041 122.380470,169.082962
z"/>
<path fill="#A00149" opacity="1.000000" stroke="none"
	d="
M55.703323,147.954865
	C55.717575,148.191498 55.412548,148.479065 54.788567,148.819031
	C54.774422,148.582886 55.079235,148.294327 55.703323,147.954865
z"/>
<path fill="#9C0553" opacity="1.000000" stroke="none"
	d="
M87.258522,169.893860
	C87.170944,169.456238 87.424889,169.341309 87.873642,169.630310
	C87.816452,169.825378 87.660316,169.886139 87.258522,169.893860
z"/>
<path fill="#9E014C" opacity="1.000000" stroke="none"
	d="
M80.258759,264.867371
	C80.215332,264.419556 80.476036,264.336060 80.891357,264.683258
	C80.978561,264.825653 80.495468,264.943420 80.258759,264.867371
z"/>
</svg>
