<svg xmlns="http://www.w3.org/2000/svg"
shape-rendering="geometricPrecision"
width="4000" height="4000" viewBox="0 0 1024 1024">
  <metadata>null</metadata>

<path d="
M 67.802 688.743
C 70.777 688.597 73.745 688.749 76.721 688.657
C 76.784 694.082 76.699 699.575 76.99 704.994
C 77.997 704.495 79.047 701.889 79.822 700.915
C 81.894 698.315 84.045 695.758 86.038 693.096
C 87.072 691.716 88.011 689.711 89.391 688.678
C 91.761 688.714 94.133 688.758 96.506 688.747
C 97.486 688.743 99.084 688.44 99.939 688.881
C 99.241 690.552 97.087 692.048 95.908 693.432
C 93.543 696.208 91.4 699.197 89.181 702.09
C 87.863 703.809 86.219 705.59 85.332 707.574
C 85.545 709.308 87.555 711.225 88.552 712.614
C 91.471 716.677 94.368 720.712 97.152 724.87
C 98.088 726.267 99.021 727.633 100.035 728.976
C 100.261 729.275 100.989 729.889 100.939 730.246
C 97.482 730.241 94.043 730.297 90.589 730.397
C 89.156 729.351 88.165 727.103 87.105 725.675
C 84.142 721.683 81.39 717.553 78.47 713.545
C 76.239 718.156 76.518 725.057 76.991 730.063
C 75.363 730.805 71.971 730.102 70.192 730.092
C 69.49 730.088 68.624 730.243 68.014 729.905
C 67.837 716.224 68.763 702.405 67.802 688.743 Z"
opacity="1" fill="rgb(3,26,80)" fill-rule="evenodd" />
<path d="
M 105.722 688.77
C 108.486 688.841 111.262 688.768 114.031 688.812
C 114.513 692.465 113.852 696.429 113.941 700.131
C 114.183 710.148 114.167 720.191 114.142 730.216
C 111.502 730.107 108.695 730.106 106.07 730.402
C 105.469 729.803 105.747 728.495 105.753 727.672
C 105.77 725.118 105.71 722.559 105.681 720.005
C 105.598 712.838 105.687 705.669 105.747 698.503
C 105.774 695.293 105.456 691.96 105.722 688.77 Z"
opacity="1" fill="rgb(4,23,76)" fill-rule="evenodd" />
<path d="
M 122.341 688.907
C 126.479 688.827 130.617 688.755 134.759 688.783
C 137.233 688.8 139.999 688.762 142.297 689.804
C 151.065 693.782 153.21 706.766 145.472 712.882
C 142.705 715.068 139.421 715.62 135.994 715.743
C 134.316 715.803 132.125 715.446 130.561 716.091
C 130.883 720.807 130.596 725.58 130.631 730.303
C 128.67 730.018 126.485 730.217 124.503 730.227
C 123.732 730.23 122.904 730.466 122.188 730.145
C 121.857 716.549 122.038 702.891 122.109 689.29
C 122.187 689.162 122.264 689.035 122.341 688.907 Z
M 130.952 696.496
C 130.849 696.563 130.746 696.631 130.643 696.698
C 130.677 700.508 130.768 704.353 130.711 708.159
C 131.397 708.714 133.391 708.33 134.265 708.307
C 136.24 708.254 138.717 708.404 140.17 706.825
C 143.399 703.316 141.792 697.09 136.884 696.449
C 134.949 696.196 132.884 696.267 130.952 696.496 Z"
opacity="1" fill="rgb(3,23,75)" fill-rule="evenodd" />
<path d="
M 152.939 705.094
C 155.006 691.9 171.131 684.352 182.919 690.17
C 191.29 694.301 195.588 703.577 194.116 712.649
C 193.379 717.187 191.709 721.679 188.289 724.909
C 179.1 733.587 162.372 731.932 155.617 720.937
C 152.899 716.514 152.146 710.156 152.939 705.094 Z
M 161.439 706.606
C 160.607 712.725 163.159 719.597 169.177 722.139
C 177.169 725.515 184.732 718.771 185.739 710.984
C 186.482 705.239 183.797 699.21 178.318 696.87
C 171.263 693.857 162.445 699.217 161.439 706.606 Z"
opacity="1" fill="rgb(4,26,79)" fill-rule="evenodd" />
<path d="
M 197.94 724.082
C 198.196 723.175 198.553 722.123 199.411 721.597
C 201.172 720.518 205.304 721.028 206.412 722.837
C 207.13 724.009 206.803 726.029 206.607 727.33
C 206.011 731.28 203.042 738.207 198.054 737.978
C 197.145 736.042 199.544 733.236 200.401 731.526
C 200.589 731.15 201.414 729.79 201.172 729.427
C 200.133 729.788 199.106 729.536 198.056 729.386
C 197.101 728.398 197.678 725.332 197.94 724.082 Z"
opacity="1" fill="rgb(3,22,76)" fill-rule="evenodd" />
<path d="
M 225.502 716.62
C 226.51 707.411 224.593 697.886 225.671 688.71
C 234.048 688.772 242.473 688.728 250.853 688.653
C 250.791 691.135 250.476 693.821 250.851 696.281
C 245.223 695.769 239.51 696.341 233.877 696.36
C 233.845 699.519 233.51 702.7 233.607 705.855
C 238.402 705.274 243.358 706.051 248.177 705.77
C 248.345 707.474 247.959 709.309 247.923 711.026
C 247.911 711.556 248.113 712.712 247.857 713.125
C 243.25 713.607 238.433 713.139 233.794 713.338
C 233.243 714.779 233.723 716.953 233.741 718.509
C 233.772 721.173 233.803 723.835 233.795 726.5
C 233.792 727.675 233.54 729.132 233.782 730.261
C 231.108 730.254 228.402 729.994 225.732 730.125
C 225.297 728.638 225.623 726.723 225.619 725.164
C 225.613 722.321 225.407 719.46 225.502 716.62 Z"
opacity="1" fill="rgb(5,26,77)" fill-rule="evenodd" />
<path d="
M 248.531 729.585
C 251.21 721.006 255.301 712.62 258.819 704.354
C 261.209 698.736 263.26 692.576 266.535 687.407
C 267.084 687.2 267.889 688.843 268.184 689.329
C 269.652 691.756 270.48 694.664 271.642 697.254
C 275.042 704.833 278.069 712.565 281.441 720.153
C 282.907 723.454 284.157 726.968 286.083 730.039
C 285.356 730.395 284.172 730.128 283.391 730.108
C 281.342 730.056 279.252 729.973 277.21 730.143
C 275.664 728.344 275.223 725.51 273.951 723.485
C 269.455 722.782 264.073 723.01 259.54 723.378
C 257.807 724.659 257.103 728.328 256.403 730.301
C 254.454 730.428 252.423 730.357 250.47 730.299
C 249.752 730.278 248.914 730.492 248.242 730.238
C 248.338 730.02 248.434 729.803 248.531 729.585 Z
M 261.828 716.216
C 261.851 716.31 261.873 716.404 261.896 716.498
C 264.853 716.971 268.377 716.855 271.366 716.666
C 271.48 716.042 270.796 714.905 270.576 714.315
C 269.874 712.435 269.177 710.542 268.414 708.685
C 268.086 707.886 266.807 704.241 266.491 704.72
C 265.221 708.534 263.674 712.646 261.828 716.216 Z"
opacity="1" fill="rgb(4,25,78)" fill-rule="evenodd" />
<path d="
M 285.474 707.111
C 285.826 704.854 286.136 702.693 287.107 700.592
C 291.108 691.939 300.481 686.922 309.907 688.371
C 313.607 688.94 316.856 690.587 319.598 693.113
C 320.296 693.756 321.652 694.595 321.968 695.499
C 321.291 696.529 319.757 697.287 318.808 698.088
C 317.815 698.927 317.148 700.107 316.15 700.898
C 314.11 698.834 312.332 697.193 309.401 696.534
C 307.542 696.115 305.575 696.137 303.7 696.452
C 289.586 698.818 290.955 721.165 304.77 722.878
C 306.577 723.102 308.493 722.903 310.231 722.367
C 312.481 721.673 314.421 720.426 316.087 718.773
C 317.632 719.535 319.063 721.276 320.446 722.337
C 320.809 722.616 322.091 723.395 321.844 723.826
C 321.124 724.723 319.843 725.38 318.935 726.095
C 310.905 732.415 298.507 732.204 291.127 724.842
C 286.609 720.335 284.89 713.329 285.474 707.111 Z"
opacity="1" fill="rgb(4,25,77)" fill-rule="evenodd" />
<path d="
M 323.93 688.836
C 326.763 687.958 330.552 688.731 333.504 688.745
C 339.682 688.775 345.919 688.383 352.088 688.736
C 352.251 691.167 351.749 693.864 352.136 696.251
C 349.965 696.027 347.674 696.165 345.492 696.188
C 344.396 696.2 343.101 696.043 342.102 696.507
C 341.881 700.636 342.183 704.864 342.2 709.004
C 342.23 716.085 342.105 723.177 342.212 730.256
C 339.576 730.48 336.715 730.426 334.083 730.199
C 334.011 722.469 334.071 714.73 334.066 706.997
C 334.063 703.564 334.59 699.711 334.077 696.327
C 331.638 696.424 329.167 696.291 326.724 696.263
C 326.044 696.255 324.858 696.508 324.307 696.086
C 324.331 693.66 324.054 691.253 323.93 688.836 Z"
opacity="1" fill="rgb(5,25,75)" fill-rule="evenodd" />
<path d="
M 352.038 270.603
C 352.051 270.027 352.006 270.352 352.25 269.643
C 386.143 269.923 420.103 269.658 454.008 269.567
C 465.007 269.538 476.008 269.506 487.008 269.538
C 493.012 269.556 499.296 269.145 505.258 269.876
C 505.59 270.519 504.516 272.245 504.286 272.916
C 503.296 275.808 502.347 278.725 501.399 281.631
C 497.354 294.017 492.273 306.017 486.413 317.651
C 478.394 333.573 469.946 349.187 460.625 364.391
C 441.931 394.884 419.654 423.402 395.92 450.113
C 385.066 462.329 373.797 474.283 362.184 485.786
C 359.495 488.449 356.688 491.046 354.131 493.836
C 353.854 494.139 352.113 496.528 351.81 496.275
C 352.156 488.377 351.867 480.413 351.868 472.501
C 351.87 458 351.892 443.497 351.938 428.996
C 352.104 376.192 351.887 323.401 352.038 270.603 Z"
opacity="1" fill="rgb(3,24,77)" fill-rule="evenodd" />
<path d="
M 351.876 521.071
C 352.484 518.493 355.554 515.903 357.235 513.93
C 360.844 509.695 364.189 505.245 367.834 501.038
C 376.561 490.968 384.82 480.507 393.537 470.43
C 398.535 464.651 403.997 458.956 408.468 452.769
C 409.319 452.742 409.936 453.996 410.477 454.612
C 412.313 456.705 414.152 458.825 415.835 461.044
C 422.465 469.783 429.908 477.84 436.675 486.467
C 449.552 502.885 462.983 518.928 476.44 534.874
C 491.628 552.873 505.882 571.668 520.765 589.913
C 528.622 599.545 536.63 609.04 544.384 618.758
C 546.306 621.168 548.207 623.621 550.205 625.967
C 550.591 626.42 552.196 627.785 552.031 628.288
C 536.217 628.719 520.324 628.178 504.501 628.182
C 473.168 628.19 441.834 628.26 410.5 628.252
C 397.5 628.249 384.5 628.2 371.5 628.242
C 365.038 628.262 358.392 627.853 351.954 628.42
C 351.316 623.775 351.856 618.691 351.863 614.001
C 351.877 604.333 351.938 594.665 351.93 584.997
C 351.918 570.83 351.96 556.663 351.934 542.496
C 351.921 535.406 351.371 528.142 351.876 521.071 Z"
opacity="1" fill="rgb(3,24,78)" fill-rule="evenodd" />
<path d="
M 356.917 688.87
C 357.678 688.513 358.657 688.633 359.494 688.661
C 361.314 688.722 363.78 688.214 365.499 688.825
C 364.984 694.726 365.671 700.805 365.629 706.73
C 365.602 710.58 364.882 715.2 366.04 718.928
C 367.696 724.254 375.197 724.633 378.314 720.549
C 380.295 717.953 379.678 714.016 379.674 710.954
C 379.665 703.692 379.417 696.393 379.653 689.137
C 382.199 688.598 384.999 688.796 387.594 688.683
C 387.838 696.199 387.693 703.756 387.726 711.28
C 387.743 714.989 388.264 719.765 386.512 723.187
C 381.509 732.963 364.01 733.427 358.914 723.581
C 356.805 719.508 357.134 714.96 357.138 710.5
C 357.145 703.286 357.277 696.075 356.917 688.87 Z"
opacity="1" fill="rgb(3,23,75)" fill-rule="evenodd" />
<path d="
M 395.329 688.94
C 402.215 688.791 411.824 686.967 417.747 691.271
C 425.684 697.039 425.763 711.349 415.534 714.909
C 418.194 718.477 420.055 722.669 422.346 726.476
C 422.891 727.382 424.88 729.262 424.802 730.255
C 421.779 729.962 418.226 730.914 415.291 730.157
C 413.153 726.966 411.331 723.587 409.398 720.271
C 408.504 718.74 407.732 716.964 406.381 715.783
C 405.693 715.482 404.399 715.064 403.821 715.642
C 403.606 720.32 403.168 725.574 403.728 730.224
C 401.264 730.114 397.943 730.926 395.605 730.238
C 395.451 721.16 395.427 712.084 395.329 703.003
C 395.281 698.501 394.587 693.372 395.329 688.94 Z
M 403.307 696.322
C 403.494 700.51 403.362 704.763 403.447 708.963
C 406.244 709.01 410.723 709.147 413.143 707.529
C 416.462 705.31 416.638 699.352 413.042 697.289
C 410.232 695.677 406.398 696.341 403.307 696.322 Z"
opacity="1" fill="rgb(3,23,75)" fill-rule="evenodd" />
<path d="
M 426.897 729.001
C 431.217 718.814 434.641 708.217 439.178 698.11
C 440.221 695.785 441.289 693.469 442.321 691.139
C 442.894 689.846 443.222 688.45 444.557 687.74
C 447.489 690.639 448.868 696.207 450.458 699.958
C 453.574 707.308 456.666 714.591 460.037 721.827
C 461.291 724.518 461.95 727.558 463.545 730.073
C 462.962 730.479 461.556 730.193 460.881 730.186
C 458.849 730.168 456.731 730.467 454.716 730.218
C 453.787 728.227 453.333 725.069 451.746 723.521
C 447.154 723.157 442.146 723.2 437.561 723.611
C 436.042 725.507 435.498 727.96 434.717 730.217
C 433.139 730.749 430.686 730.292 429.012 730.292
C 428.142 730.292 427.335 730.494 426.568 730.041
C 426.789 729.263 426.673 729.608 426.897 729.001 Z
M 439.891 716.15
C 439.863 716.314 439.835 716.478 439.806 716.643
C 442.829 716.742 446.268 716.155 449.229 716.663
C 447.185 712.853 446.654 707.923 444.332 704.329
C 443.146 708.304 441.453 712.298 439.891 716.15 Z"
opacity="1" fill="rgb(4,25,78)" fill-rule="evenodd" />
<path d="
M 434.486 434.069
C 437.942 431.105 440.562 426.286 443.233 422.606
C 448.523 415.318 454.096 408.157 459.584 401.016
C 476.349 379.203 492.821 357.166 509.714 335.443
C 520.907 321.05 532.317 307.018 546.545 295.474
C 551.094 291.782 555.766 287.978 560.921 285.151
C 574.778 277.553 589.772 272.315 605.502 270.445
C 618.211 268.934 631.231 269.522 644.006 269.522
C 666.245 269.522 688.522 269.995 710.754 269.755
C 710.6 270.901 708.112 273.04 707.334 273.967
C 704.326 277.549 701.338 281.195 698.534 284.939
C 687.45 299.733 675.945 314.255 664.699 328.932
C 656.905 339.105 649.006 349.197 641.279 359.42
C 626.454 379.032 611.246 398.912 590.669 412.899
C 576.564 422.487 560.616 429.155 543.885 432.459
C 534.63 434.288 525.488 433.919 516.145 434.442
C 504.836 435.076 493.338 434.691 482.007 434.586
C 473.259 434.505 464.477 434.29 455.733 434.459
C 450.169 434.567 444.658 434.537 439.101 434.423
C 437.433 434.389 435.747 434.73 434.101 434.618
C 434.229 434.435 434.357 434.252 434.486 434.069 Z"
opacity="1" fill="rgb(198,29,41)" fill-rule="evenodd" />
<path d="
M 436 446.759
C 441.256 446.78 446.504 446.388 451.761 446.356
C 468.009 446.254 484.261 446.303 500.509 446.279
C 511.121 446.264 521.943 445.775 532.502 446.993
C 545.96 448.545 559.301 452.365 571.386 458.512
C 597.842 471.969 615.633 495.852 632.393 519.444
C 640.382 530.689 648.455 541.987 656.701 553.042
C 669.115 569.683 681.265 586.585 693.29 603.508
C 697.295 609.145 701.346 614.768 705.418 620.355
C 706.927 622.427 708.524 624.464 710.168 626.431
C 710.384 626.688 711.594 628.06 711.445 628.162
C 702.108 628.993 692.376 628.249 683 628.228
C 665.5 628.19 648 628.241 630.5 628.224
C 622.737 628.217 614.974 628.211 607.211 628.21
C 603.18 628.209 598.161 628.806 594.329 627.306
C 592.291 626.507 590.544 624.687 588.914 623.27
C 585.931 620.676 582.886 618.198 580.068 615.42
C 569.366 604.869 559.959 593.097 549.978 581.877
C 537.348 567.678 525.42 552.813 513.252 538.217
C 498.893 520.994 483.729 504.464 469.587 487.058
C 461.706 477.357 453.598 467.83 445.621 458.205
C 443.522 455.672 441.396 453.14 439.25 450.647
C 438.187 449.414 436.739 448.195 436 446.759 Z"
opacity="1" fill="rgb(199,32,41)" fill-rule="evenodd" />
<path d="
M 464.104 722.927
C 466.182 721.54 468.074 720.183 470.056 718.655
C 473.293 720.821 474.941 723.339 479.256 723.275
C 482.889 723.222 486.669 719.789 483.99 716.136
C 482.442 714.026 479.231 713.566 476.916 712.775
C 471.671 710.984 466.337 708.02 465.809 701.904
C 465.677 700.378 465.719 698.735 466.13 697.252
C 469.306 685.799 486.195 686.124 492.324 694.664
C 492.087 695.252 491.138 695.69 490.643 696.06
C 489.33 697.044 488.173 699.29 486.745 699.905
C 483.951 697.762 482.045 695.774 478.226 696.053
C 475.238 696.272 472.339 699.357 474.28 702.358
C 476.387 705.615 481.128 705.792 484.41 707.063
C 490.517 709.427 494.507 715.15 492.673 721.838
C 490.014 731.531 477.151 732.4 469.815 728.153
C 467.679 726.916 464.924 725.399 464.104 722.927 Z"
opacity="1" fill="rgb(4,26,77)" fill-rule="evenodd" />
<path d="
M 511.435 689.55
C 511.472 689.365 511.51 689.18 511.547 688.994
C 519.843 688.215 528.268 689.097 536.583 688.799
C 537.025 691.198 535.833 693.876 536.594 696.279
C 535.664 696.776 533.117 696.221 531.999 696.225
C 527.93 696.238 523.859 696.327 519.792 696.319
C 519.922 699.592 519.816 702.896 519.577 706.165
C 520.794 706.683 522.673 706.238 523.993 706.206
C 527.294 706.126 530.66 706.076 533.955 706.268
C 533.663 708.645 533.72 711.074 533.585 713.464
C 529.208 714.35 524.173 713.404 519.704 713.697
C 519.346 719.147 520.164 724.869 519.383 730.258
C 516.769 730.29 514.168 730.069 511.557 730.28
C 511.237 729.051 511.6 727.774 511.546 726.532
C 511.406 723.356 511.462 720.176 511.454 716.995
C 511.43 707.868 511.099 698.669 511.435 689.55 Z"
opacity="1" fill="rgb(5,25,77)" fill-rule="evenodd" />
<path d="
M 534.464 729.047
C 538.316 718.994 542.123 708.945 546.346 699.038
C 547.856 695.497 549.04 690.288 551.949 687.66
C 553.078 687.752 553.68 689.271 554.142 690.209
C 555.401 692.767 556.491 695.454 557.545 698.1
C 560.379 705.215 563.524 712.205 566.491 719.261
C 568.003 722.856 569.147 726.647 571.008 730.088
C 570.822 730.435 569.328 730.198 568.978 730.186
C 566.958 730.113 564.188 730.622 562.306 729.954
C 561.445 727.969 560.523 725.587 559.202 723.867
C 558.483 723.136 556.978 723.414 556.012 723.402
C 553.36 723.366 550.728 723.508 548.083 723.587
C 547.012 723.62 545.682 723.409 544.765 724.031
C 543.351 725.625 542.618 728.265 541.854 730.243
C 539.691 730.821 536.712 730.303 534.454 730.354
C 533.993 729.899 534.32 729.616 534.464 729.047 Z
M 547.36 715.545
C 547.286 715.763 547.212 715.982 547.137 716.201
C 550.021 717.56 553.708 716.135 556.732 716.695
C 555.569 713.583 554.418 710.458 553.331 707.317
C 553.015 706.404 552.926 704.459 551.821 704.722
C 550.575 708.322 548.895 712.048 547.36 715.545 Z"
opacity="1" fill="rgb(3,25,78)" fill-rule="evenodd" />
<path d="
M 570.478 708.112
C 571.647 697.134 579.982 688.381 591.397 688.339
C 595.773 688.322 599.708 689.69 603.221 692.243
C 604.142 692.913 606.032 694.115 606.243 695.314
C 605.138 696.425 603.637 697.065 602.532 698.211
C 601.903 698.864 601.268 700.336 600.568 700.783
C 599.264 699.179 597.781 697.857 595.858 697.043
C 594.28 696.375 592.55 696.14 590.844 696.214
C 585.97 696.424 581.549 699.366 579.716 703.976
C 576.906 711.046 580.149 720.872 588.076 722.677
C 589.892 723.091 591.844 722.977 593.657 722.593
C 596.354 722.021 598.635 720.624 600.554 718.671
C 602.16 719.677 603.575 721.409 605.106 722.603
C 605.535 722.937 606.454 723.322 606.495 723.895
C 598.395 732.98 582.75 732.419 574.994 723.401
C 571.513 719.354 570.12 713.348 570.478 708.112 Z"
opacity="1" fill="rgb(4,26,78)" fill-rule="evenodd" />
<path d="
M 611.497 715.619
C 612.318 706.772 610.685 697.648 611.907 688.837
C 614.244 688.642 617.14 688.368 619.425 688.954
C 619.653 698.487 619.544 708.025 619.464 717.569
C 619.439 720.545 619.4 723.522 619.354 726.498
C 619.338 727.597 619.656 729.141 619.38 730.176
C 616.878 730.381 614.196 730.201 611.689 730.1
C 611.181 725.321 611.364 720.42 611.497 715.619 Z"
opacity="1" fill="rgb(7,27,81)" fill-rule="evenodd" />
<path d="
M 626.933 688.802
C 629.334 688.433 632.594 688.437 634.994 688.863
C 634.975 700.145 634.612 711.634 635.037 722.899
C 640.326 722.756 645.705 722.419 650.994 722.625
C 651.046 724.497 650.914 726.363 650.923 728.244
C 650.926 728.655 651.097 729.89 650.881 730.211
C 649.305 730.32 647.729 729.942 646.146 729.993
C 639.828 730.196 633.486 730.103 627.163 730.112
C 626.532 724.637 626.979 719.001 626.973 713.496
C 626.966 705.272 626.712 697.015 626.933 688.802 Z"
opacity="1" fill="rgb(5,28,79)" fill-rule="evenodd" />
<path d="
M 664.937 722.962
C 666.575 721.507 668.321 720.056 670.005 718.67
C 671.036 719.587 671.618 720.898 672.726 721.756
C 674.663 723.255 677.36 723.589 679.737 723.43
C 682.622 723.236 686.076 720.51 684.596 717.269
C 682.981 713.734 677.29 712.944 674.053 711.709
C 667.654 709.269 664.577 701.977 667.003 695.557
C 669.566 688.774 677.943 687.036 684.239 689.192
C 686.479 689.959 688.572 691.238 690.182 692.98
C 690.559 693.387 691.448 694.128 691.282 694.756
C 689.427 696.393 687.909 698.13 686.197 699.872
C 683.601 698.079 681.998 695.805 678.499 695.848
C 674.777 695.894 671.937 699.593 674.641 702.912
C 676.369 705.033 679.369 705.486 681.814 706.303
C 686.726 707.944 691.532 710.691 692.247 716.361
C 693.512 726.398 684.126 732.224 675.036 730.403
C 670.584 729.511 667.497 726.708 664.542 723.509
C 664.674 723.326 664.806 723.144 664.937 722.962 Z"
opacity="1" fill="rgb(178,16,39)" fill-rule="evenodd" />
<path d="
M 697.971 708.62
C 698.838 702.144 697.865 695.351 698.302 688.821
C 700.203 688.855 702.107 688.728 704.009 688.716
C 704.604 688.712 705.452 688.538 705.876 688.973
C 705.704 698.47 705.841 708 705.923 717.5
C 705.959 721.562 705.144 726.261 705.834 730.247
C 704.056 730.257 702.275 730.244 700.497 730.239
C 699.772 730.237 698.835 730.512 698.22 730.107
C 698.151 722.959 697.53 715.774 697.971 708.62 Z"
opacity="1" fill="rgb(174,14,39)" fill-rule="evenodd" />
<path d="
M 713.903 688.444
C 714.07 688.323 714.237 688.202 714.405 688.081
C 717.461 688.905 719.328 692.027 721.379 694.274
C 724.917 698.149 728.487 702.128 731.769 706.222
C 733.344 708.186 734.717 710.694 736.49 712.44
C 736.705 711.963 736.451 711.16 736.382 710.658
C 736.198 709.309 736.243 707.864 736.285 706.505
C 736.469 700.662 736.432 694.817 736.418 688.973
C 738.956 688.489 741.624 688.808 744.193 688.718
C 744.673 692.178 744.187 696.002 744.183 699.501
C 744.174 706.835 744.213 714.169 744.2 721.503
C 744.196 723.997 744.116 726.505 744.221 728.997
C 744.246 729.575 744.511 731.101 743.934 731.408
C 742.25 730.517 740.825 728.868 739.461 727.566
C 735.322 723.613 731.844 719.134 728.088 714.831
C 726.653 713.187 725.226 711.575 723.706 710.007
C 722.995 709.275 722.348 708.426 721.331 708.202
C 721.208 713.132 721.329 718.073 721.365 723.005
C 721.382 725.406 721.004 728.02 721.284 730.389
C 718.853 730.289 716.394 730.283 713.965 730.403
C 713.363 729.823 713.69 728.324 713.708 727.503
C 713.763 725.006 713.729 722.501 713.722 720.003
C 713.703 713.004 713.684 706.003 713.726 699.003
C 713.748 695.508 713.48 691.918 713.903 688.444 Z"
opacity="1" fill="rgb(177,14,40)" fill-rule="evenodd" />
<path d="
M 763.484 689.607
C 763.492 689.379 763.499 689.151 763.506 688.923
C 766.07 688.44 768.907 688.734 771.51 688.78
C 777.45 688.885 782.51 688.941 787.578 692.439
C 798.073 699.683 799.11 716.613 789.518 725.186
C 782.102 731.814 772.707 729.921 763.577 730.37
C 763.041 722.987 763.454 715.404 763.44 707.998
C 763.428 701.92 762.95 695.663 763.484 689.607 Z
M 771.392 697.065
C 771.996 702.995 771.717 709.042 771.72 714.999
C 771.721 717.434 771.264 720.593 771.911 722.932
C 775.78 722.719 779.847 723.022 783.101 720.534
C 789.573 715.584 789.804 703.749 783.33 698.681
C 780.062 696.122 775.515 696.501 771.614 696.493
C 771.54 696.684 771.466 696.874 771.392 697.065 Z"
opacity="1" fill="rgb(176,17,40)" fill-rule="evenodd" />
<path d="
M 796.012 729.572
C 799.077 721.108 802.145 712.59 805.472 704.213
C 807.743 698.495 809.849 692.781 813.187 687.596
C 813.976 687.179 815.016 690.342 815.378 691.161
C 817.266 695.432 819.184 699.709 820.862 704.069
C 823.367 710.58 826.143 716.953 828.813 723.396
C 829.474 724.993 829.977 726.665 830.722 728.225
C 830.957 728.718 831.557 729.616 831.403 730.171
C 828.707 730.413 825.892 730.238 823.184 730.248
C 821.773 728.314 821.364 725.748 820.336 723.607
C 819.622 722.99 817.463 723.386 816.503 723.375
C 813.181 723.337 809.81 723.14 806.495 723.37
C 804.684 725.106 804.941 728.11 803.85 730.232
C 801.191 730.33 798.466 730.261 795.805 730.211
C 795.843 729.808 795.791 730.025 796.012 729.572 Z
M 808.92 716.081
C 808.826 716.318 808.732 716.556 808.638 716.793
C 811.686 716.765 814.734 716.69 817.782 716.651
C 817.752 714.023 815.365 710.734 814.455 708.293
C 814.034 707.165 813.87 705.756 813.111 704.816
C 811.565 708.508 810.442 712.376 808.92 716.081 Z"
opacity="1" fill="rgb(179,13,40)" fill-rule="evenodd" />
<path d="
M 834.473 690.105
C 834.584 689.636 834.564 689.25 834.81 688.825
C 838.308 688.596 841.831 688.646 845.337 688.692
C 849.581 688.749 853.808 688.788 857.471 691.208
C 866.132 696.929 863.651 710.709 855.007 714.769
C 858.006 719.598 860.325 724.994 863.729 729.555
C 864.608 729.952 864.871 727.13 865.025 726.611
C 866.086 723.051 867.804 719.616 869.109 716.134
C 871.749 709.089 874.151 701.997 877.306 695.154
C 878.57 692.411 879.44 689.401 881.52 687.139
C 883.754 690.215 884.7 694.027 886.196 697.479
C 889.343 704.747 892.412 712.062 895.336 719.423
C 896.363 722.009 897.132 724.683 898.276 727.22
C 898.544 727.814 899.576 729.489 899.351 730.123
C 896.651 730.157 893.878 730.378 891.187 730.223
C 889.989 728.24 889.681 725.855 888.698 723.768
C 887.954 723.049 885.996 723.457 885.003 723.456
C 881.506 723.453 878.003 723.337 874.508 723.412
C 873.468 725.525 872.703 727.87 872.211 730.176
C 870.344 730.357 868.37 729.99 866.482 730.054
C 862.735 730.181 858.9 730.476 855.154 730.284
C 853.891 729.501 852.999 727.347 852.226 726.091
C 850.159 722.729 848.511 718.645 845.943 715.661
C 845.028 715.353 844.033 715.28 843.145 715.673
C 842.667 718.554 842.841 721.58 842.841 724.493
C 842.842 726.37 842.597 728.463 842.876 730.312
C 841.01 730.229 839.124 730.224 837.254 730.216
C 836.544 730.213 835.476 730.429 834.83 730.122
C 834.562 720.926 834.625 711.709 834.634 702.508
C 834.638 698.409 834.258 694.184 834.473 690.105 Z
M 842.763 696.331
C 842.578 700.441 842.786 704.559 842.652 708.67
C 845.603 708.43 849.519 709.115 852.151 707.509
C 855.648 705.375 856.04 698.998 852.234 696.894
C 849.691 695.489 845.536 696.241 842.763 696.331 Z
M 877.486 715.076
C 877.273 715.693 877.397 715.348 877.108 716.11
C 879.341 717.296 883.547 716.338 886.034 716.416
C 885.63 714.569 884.573 712.799 883.851 711.059
C 882.981 708.959 882.317 706.742 881.349 704.693
C 880.179 708.173 878.769 711.637 877.486 715.076 Z"
opacity="1" fill="rgb(178,15,40)" fill-rule="evenodd" />
<path d="
M 901.962 696.622
C 902.398 693.585 902.112 690.383 902.292 687.318
C 905.939 691.596 908.853 696.23 911.962 700.905
C 914.548 704.793 917.522 708.681 919.37 712.983
C 921.393 710.887 922.763 707.407 924.236 704.891
C 926.399 701.198 928.99 697.777 931.42 694.265
C 933.094 691.845 934.774 688.537 937.638 687.392
C 938.074 688.42 937.762 689.887 937.759 690.99
C 937.754 693.66 937.756 696.329 937.728 698.999
C 937.658 705.666 937.756 712.331 937.727 718.998
C 937.711 722.614 937.169 726.783 937.855 730.334
C 935.192 730.088 932.306 730.113 929.634 730.22
C 929.207 728.742 929.7 726.551 929.72 725.005
C 929.779 720.335 930.525 714.853 929.519 710.288
C 928.277 711.681 927.52 713.575 926.603 715.2
C 925.172 717.734 923.574 720.244 921.97 722.671
C 921.214 723.815 920.474 726.058 919.355 726.791
C 916.975 722.954 914.73 718.989 912.376 715.121
C 911.626 713.887 910.777 711.154 909.41 710.635
C 909.575 717.041 908.414 723.955 909.323 730.291
C 906.989 730.123 904.283 729.965 901.977 730.411
C 901.358 725.557 901.83 720.385 901.869 715.499
C 901.918 709.221 901.609 702.891 901.962 696.622 Z"
opacity="1" fill="rgb(180,15,41)" fill-rule="evenodd" />
<path d="
M 940.454 729.543
C 944.228 721.681 946.707 713.152 949.959 705.053
C 951.566 701.051 953.141 697.038 954.894 693.097
C 955.774 691.116 957.025 689.19 957.732 687.162
C 959.911 690.338 961.133 693.858 962.631 697.375
C 965.709 704.601 968.742 711.879 971.668 719.168
C 972.776 721.927 973.861 724.684 974.872 727.48
C 975.12 728.164 976.074 729.593 975.967 730.232
C 973.359 730.38 970.728 730.004 968.121 730.309
C 966.398 728.863 966.145 725.389 964.97 723.466
C 961.957 723.141 958.748 723.341 955.714 723.362
C 954.295 723.372 952.526 723.055 951.165 723.433
C 950.013 725.442 948.855 727.875 948.706 730.22
C 948.04 730.476 946.96 730.214 946.243 730.199
C 944.227 730.156 942.207 730.296 940.196 730.202
C 940.282 729.982 940.368 729.763 940.454 729.543 Z
M 953.864 715.522
C 953.622 716.197 953.75 715.819 953.489 716.657
C 956.527 716.85 959.865 716.259 962.854 716.813
C 962.018 714.226 960.536 711.676 959.429 709.176
C 958.944 708.08 958.536 705.917 957.768 705.083
C 957.67 704.977 957.608 705.325 957.529 705.446
C 956.645 708.905 955.288 712.259 953.864 715.522 Z"
opacity="1" fill="rgb(179,15,41)" fill-rule="evenodd" />

</svg>